<svg xmlns="http://www.w3.org/2000/svg" viewBox="0 0 200 200" width="100%" height="100%">
  <defs>
    <!-- 3D Puffed Rim Gradient -->
    <linearGradient id="cooeeRim" x1="0" y1="0" x2="1" y2="1">
      <stop offset="0%" stop-color="#ffffff"/>
      <stop offset="40%" stop-color="#ffffff"/>
      <stop offset="85%" stop-color="#f1f5f9"/>
      <stop offset="100%" stop-color="#d1d5db"/>
    </linearGradient>
    
    <!-- 3D Inner Face Radial Gradient -->
    <radialGradient id="cooeeFace" cx="50%" cy="35%" r="65%">
      <stop offset="0%" stop-color="#ffffff"/>
      <stop offset="60%" stop-color="#f0f9ff"/>
      <stop offset="85%" stop-color="#bae6fd"/>
      <stop offset="100%" stop-color="#93c5fd"/>
    </radialGradient>

    <!-- 3D Inset Eye Gradient -->
    <linearGradient id="eyeGrad" x1="0" y1="0" x2="0" y2="1">
      <stop offset="0%" stop-color="#1e3a8a"/>
      <stop offset="45%" stop-color="#2563eb"/>
      <stop offset="80%" stop-color="#3b82f6"/>
      <stop offset="100%" stop-color="#93c5fd"/>
    </linearGradient>

    <!-- Soft diffuse blue drop-shadow -->
    <filter id="softGlow" x="-30%" y="-30%" width="160%" height="160%">
      <feDropShadow dx="0" dy="10" stdDeviation="12" flood-color="#3b82f6" flood-opacity="0.22"/>
    </filter>
  </defs>

  <!-- Smartphone Frame -->
  <rect x="55" y="25" width="90" height="150" rx="14" fill="#3c3c3c" stroke="#1e3a8a" stroke-width="3"/>
  <rect x="60" y="32" width="80" height="122" rx="8" fill="#e0f2fe" stroke="#1e3a8a" stroke-width="1.5"/>
  <!-- Home button -->
  <circle cx="100" cy="164" r="4" fill="#afafaf"/>
  <!-- Speaker -->
  <line x1="90" y1="28" x2="110" y2="28" stroke="#afafaf" stroke-width="2" stroke-linecap="round"/>

  <!-- Squaricle Mascot inside phone screen -->
  <g transform="translate(68, 55) scale(0.6)">
    <!-- 1. Soft blue diffuse glow inside phone screen -->
    <rect x="42" y="42" width="116" height="116" rx="36" fill="#ffffff" filter="url(#softGlow)"/>

    <!-- 2. Puffed Rim -->
    <rect x="42" y="42" width="116" height="116" rx="36" fill="url(#cooeeRim)"/>
    
    <!-- 3. Inner face -->
    <rect x="50" y="50" width="100" height="100" rx="28" fill="url(#cooeeFace)"/>

    <!-- 4. Eyes (left eye open, right eye winking) -->
    <rect x="74" y="82" width="12" height="28" rx="6" fill="url(#eyeGrad)"/>
    <path d="M 112 95 Q 120 97 128 95" fill="none" stroke="url(#eyeGrad)" stroke-width="5.5" stroke-linecap="round"/>

    <!-- 5. Smile -->
    <path d="M 88 122 Q 100 132 112 122" fill="none" stroke="url(#eyeGrad)" stroke-width="4.5" stroke-linecap="round"/>
  </g>
</svg>
