<svg xmlns="http://www.w3.org/2000/svg" viewBox="0 0 200 200" width="100%" height="100%">
  <defs>
    <!-- 3D Puffed Rim Gradient -->
    <linearGradient id="cooeeRim" x1="0" y1="0" x2="1" y2="1">
      <stop offset="0%" stop-color="#ffffff"/>
      <stop offset="40%" stop-color="#ffffff"/>
      <stop offset="85%" stop-color="#f1f5f9"/>
      <stop offset="100%" stop-color="#d1d5db"/>
    </linearGradient>
    
    <!-- 3D Inner Face Radial Gradient -->
    <radialGradient id="cooeeFace" cx="50%" cy="35%" r="65%">
      <stop offset="0%" stop-color="#ffffff"/>
      <stop offset="60%" stop-color="#f0f9ff"/>
      <stop offset="85%" stop-color="#bae6fd"/>
      <stop offset="100%" stop-color="#93c5fd"/>
    </radialGradient>

    <!-- 3D Inset Eye Gradient -->
    <linearGradient id="eyeGrad" x1="0" y1="0" x2="0" y2="1">
      <stop offset="0%" stop-color="#1e3a8a"/>
      <stop offset="45%" stop-color="#2563eb"/>
      <stop offset="80%" stop-color="#3b82f6"/>
      <stop offset="100%" stop-color="#93c5fd"/>
    </linearGradient>

    <!-- Soft diffuse blue drop-shadow -->
    <filter id="softGlow" x="-30%" y="-30%" width="160%" height="160%">
      <feDropShadow dx="0" dy="10" stdDeviation="12" flood-color="#3b82f6" flood-opacity="0.22"/>
    </filter>
  </defs>

  <!-- Document Sheet -->
  <g transform="translate(20, 95) rotate(-5)">
    <rect x="0" y="0" width="55" height="70" rx="4" fill="#ffffff" stroke="#1e3a8a" stroke-width="3"/>
    <!-- Lines -->
    <line x1="10" y1="15" x2="45" y2="15" stroke="#afafaf" stroke-width="2.5" stroke-linecap="round"/>
    <line x1="10" y1="28" x2="35" y2="28" stroke="#afafaf" stroke-width="2.5" stroke-linecap="round"/>
    <line x1="10" y1="41" x2="45" y2="41" stroke="#afafaf" stroke-width="2.5" stroke-linecap="round"/>
    <line x1="10" y1="54" x2="30" y2="54" stroke="#58cc02" stroke-width="2.5" stroke-linecap="round"/>
  </g>

  <!-- Squaricle Mascot -->
  <g transform="translate(35, 10)">
    <!-- 1. Soft blue diffuse glow -->
    <rect x="42" y="42" width="116" height="116" rx="36" fill="#ffffff" filter="url(#softGlow)"/>

    <!-- 2. Puffed Rim -->
    <rect x="42" y="42" width="116" height="116" rx="36" fill="url(#cooeeRim)"/>
    
    <!-- 3. Inner face -->
    <rect x="50" y="50" width="100" height="100" rx="28" fill="url(#cooeeFace)"/>

    <!-- 4. Eyes (vertical rounded pills) -->
    <rect x="74" y="82" width="12" height="28" rx="6" fill="url(#eyeGrad)"/>
    <rect x="114" y="82" width="12" height="28" rx="6" fill="url(#eyeGrad)"/>

    <!-- Smile -->
    <path d="M 88 122 Q 100 132 112 122" fill="none" stroke="url(#eyeGrad)" stroke-width="4.5" stroke-linecap="round"/>
  </g>

  <!-- Pencil -->
  <g transform="translate(130, 110) rotate(25)">
    <rect x="0" y="0" width="10" height="35" fill="#ffc800" stroke="#1e3a8a" stroke-width="3"/>
    <polygon points="0,35 5,45 10,35" fill="#ff9600" stroke="#1e3a8a" stroke-width="3" stroke-linejoin="round"/>
    <rect x="0" y="-5" width="10" height="5" fill="#ff4b4b" stroke="#1e3a8a" stroke-width="2.5"/>
  </g>
</svg>
