<svg xmlns="http://www.w3.org/2000/svg" viewBox="0 0 200 200" width="100%" height="100%">
  <defs>
    <!-- 3D Puffed Rim Gradient -->
    <linearGradient id="cooeeRim" x1="0" y1="0" x2="1" y2="1">
      <stop offset="0%" stop-color="#ffffff"/>
      <stop offset="40%" stop-color="#ffffff"/>
      <stop offset="85%" stop-color="#f1f5f9"/>
      <stop offset="100%" stop-color="#d1d5db"/>
    </linearGradient>
    
    <!-- 3D Inner Face Radial Gradient -->
    <radialGradient id="cooeeFace" cx="50%" cy="35%" r="65%">
      <stop offset="0%" stop-color="#ffffff"/>
      <stop offset="60%" stop-color="#f0f9ff"/>
      <stop offset="85%" stop-color="#bae6fd"/>
      <stop offset="100%" stop-color="#93c5fd"/>
    </radialGradient>

    <!-- 3D Inset Eye Gradient -->
    <linearGradient id="eyeGrad" x1="0" y1="0" x2="0" y2="1">
      <stop offset="0%" stop-color="#1e3a8a"/>
      <stop offset="45%" stop-color="#2563eb"/>
      <stop offset="80%" stop-color="#3b82f6"/>
      <stop offset="100%" stop-color="#93c5fd"/>
    </linearGradient>

    <!-- Soft diffuse blue drop-shadow -->
    <filter id="softGlow" x="-30%" y="-30%" width="160%" height="160%">
      <feDropShadow dx="0" dy="10" stdDeviation="12" flood-color="#3b82f6" flood-opacity="0.22"/>
    </filter>
  </defs>

  <!-- Background Sparkles -->
  <path d="M 25 40 L 29 48 L 37 52 L 29 56 L 25 64 L 21 56 L 13 52 L 21 48 Z" fill="#60a5fa" opacity="0.75" />
  <path d="M 175 60 L 178 66 L 185 69 L 178 72 L 175 78 L 172 72 L 165 69 L 172 66 Z" fill="#ffc800" opacity="0.75" />
  <path d="M 30 150 L 33 154 L 39 156 L 33 158 L 30 162 L 27 158 L 21 156 L 27 154 Z" fill="#ffc800" opacity="0.75" />

  <!-- Cooee Mascot Waving Scene -->
  <g transform="translate(10, 5) rotate(2)">
    <!-- 1. Soft blue diffuse glow -->
    <rect x="42" y="42" width="116" height="116" rx="36" fill="#ffffff" filter="url(#softGlow)"/>

    <!-- 2. Puffed Rim (bevel gradient) -->
    <rect x="42" y="42" width="116" height="116" rx="36" fill="url(#cooeeRim)"/>
    
    <!-- 3. Inner face (radial gradient) -->
    <rect x="50" y="50" width="100" height="100" rx="28" fill="url(#cooeeFace)"/>

    <!-- 4. Eyes (vertical rounded pills with 3D inset gradient) -->
    <rect x="74" y="82" width="12" height="28" rx="6" fill="url(#eyeGrad)"/>
    <rect x="114" y="82" width="12" height="28" rx="6" fill="url(#eyeGrad)"/>

    <!-- 5. Smile (curved stroke with 3D inset gradient) -->
    <path d="M 88 122 Q 100 132 112 122" fill="none" stroke="url(#eyeGrad)" stroke-width="4.5" stroke-linecap="round"/>
  </g>
</svg>
