<svg xmlns="http://www.w3.org/2000/svg" viewBox="0 0 200 200" width="100%" height="100%">
  <defs>
    <!-- 3D Puffed Rim Gradient -->
    <linearGradient id="cooeeRim" x1="0" y1="0" x2="1" y2="1">
      <stop offset="0%" stop-color="#ffffff"/>
      <stop offset="40%" stop-color="#ffffff"/>
      <stop offset="85%" stop-color="#f1f5f9"/>
      <stop offset="100%" stop-color="#d1d5db"/>
    </linearGradient>
    
    <!-- 3D Inner Face Radial Gradient -->
    <radialGradient id="cooeeFace" cx="50%" cy="35%" r="65%">
      <stop offset="0%" stop-color="#ffffff"/>
      <stop offset="60%" stop-color="#f0f9ff"/>
      <stop offset="85%" stop-color="#bae6fd"/>
      <stop offset="100%" stop-color="#93c5fd"/>
    </radialGradient>

    <!-- 3D Inset Eye Gradient -->
    <linearGradient id="eyeGrad" x1="0" y1="0" x2="0" y2="1">
      <stop offset="0%" stop-color="#1e3a8a"/>
      <stop offset="45%" stop-color="#2563eb"/>
      <stop offset="80%" stop-color="#3b82f6"/>
      <stop offset="100%" stop-color="#93c5fd"/>
    </linearGradient>

    <!-- Soft diffuse blue drop-shadow -->
    <filter id="softGlow" x="-30%" y="-30%" width="160%" height="160%">
      <feDropShadow dx="0" dy="10" stdDeviation="12" flood-color="#3b82f6" flood-opacity="0.22"/>
    </filter>
  </defs>

  <!-- Chat Bubble Left (Spark Blue) -->
  <path d="M 25 50 C 25 35, 65 35, 65 50 C 65 65, 50 65, 45 73 L 43 65 C 25 65, 25 50, 25 50 Z" fill="#1cb0f6" stroke="#1e3a8a" stroke-width="2.5" stroke-linejoin="round"/>
  <!-- Message Dots Left -->
  <circle cx="37" cy="50" r="2.5" fill="#ffffff"/>
  <circle cx="45" cy="50" r="2.5" fill="#ffffff"/>
  <circle cx="53" cy="50" r="2.5" fill="#ffffff"/>

  <!-- Chat Bubble Right (Eager Green) -->
  <path d="M 135 45 C 135 30, 175 30, 175 45 C 175 60, 160 60, 155 68 L 153 60 C 135 60, 135 45, 135 45 Z" fill="#58cc02" stroke="#1e3a8a" stroke-width="2.5" stroke-linejoin="round"/>
  <!-- Message Details Right -->
  <path d="M 147 45 L 163 45 M 150 50 L 160 50" stroke="#ffffff" stroke-width="2" stroke-linecap="round"/>

  <!-- Cooee Mascot -->
  <g transform="translate(10, 30)">
    <!-- 1. Soft blue diffuse glow -->
    <rect x="42" y="42" width="116" height="116" rx="36" fill="#ffffff" filter="url(#softGlow)"/>

    <!-- 2. Puffed Rim -->
    <rect x="42" y="42" width="116" height="116" rx="36" fill="url(#cooeeRim)"/>
    
    <!-- 3. Inner face -->
    <rect x="50" y="50" width="100" height="100" rx="28" fill="url(#cooeeFace)"/>

    <!-- 4. Eyes -->
    <rect x="74" y="82" width="12" height="28" rx="6" fill="url(#eyeGrad)"/>
    <rect x="114" y="82" width="12" height="28" rx="6" fill="url(#eyeGrad)"/>

    <!-- 5. Smile -->
    <path d="M 88 122 Q 100 132 112 122" fill="none" stroke="url(#eyeGrad)" stroke-width="4.5" stroke-linecap="round"/>
  </g>
</svg>
